#N canvas 327 25 975 552 10;
#X obj -26 228 cnv 15 200 40 empty empty empty 20 12 0 14 -4034 -66577
0;
#X obj 284 93 unpack 0 0 0 0;
#X floatatom 284 124 3 0 0 0 - - -;
#X floatatom 315 124 3 0 0 0 - - -;
#X floatatom 347 124 3 0 0 0 - - -;
#X floatatom 379 124 3 0 0 0 - - -;
#X text 244 123 from;
#X obj -83 103 unpackOSC;
#X obj 5 238 routeOSC /test /west;
#X obj 5 273 print a;
#X obj 73 273 print b;
#X obj 142 273 print c;
#X msg -11 202 set /left;
#X msg -34 179 set /left /right;
#X text 97 185 set message reassigns outputs;
#X floatatom 1 123 10 0 0 1 millisecond_delay - -;
#X obj -83 130 pipelist;
#X text 176 237 arguments are OSC addresses to be routed;
#X text 117 205 (but new outlets can't be created);
#X obj -117 157 print unpacked;
#X obj -83 73 udpreceive 12345;
#X connect 1 0 2 0;
#X connect 1 1 3 0;
#X connect 1 2 4 0;
#X connect 1 3 5 0;
#X connect 7 0 16 0;
#X connect 7 0 19 0;
#X connect 7 1 15 0;
#X connect 7 1 16 1;
#X connect 8 0 9 0;
#X connect 8 1 10 0;
#X connect 8 2 11 0;
#X connect 12 0 8 0;
#X connect 13 0 8 0;
#X connect 16 0 8 0;
#X connect 20 0 7 0;
#X connect 20 1 1 0;
